<svg width="140" height="18" viewBox="0 0 140 18" fill="none" xmlns="http://www.w3.org/2000/svg">
    <path
        d="M9.78626 17.145L6.48539 10.3341L8.93778 9.70646L12.564 17.145H9.78626ZM2.42918 8.83484H6.67136C6.82623 8.83484 6.99859 8.82719 7.18859 8.81164C7.37835 8.79608 7.55845 8.76909 7.72911 8.73017C8.22482 8.61398 8.62385 8.39899 8.92617 8.08514C9.22826 7.77136 9.4451 7.40916 9.577 6.99845C9.70867 6.58782 9.7745 6.17719 9.7745 5.76648C9.7745 5.35585 9.70867 4.94699 9.577 4.54023C9.4451 4.13339 9.22826 3.77312 8.92617 3.45935C8.62385 3.14549 8.22482 2.93043 7.72911 2.81431C7.55845 2.76774 7.37835 2.73688 7.18859 2.72132C6.99859 2.70585 6.82623 2.69804 6.67136 2.69804H2.42918V8.83484ZM0 17.145V0.40831H6.76435C6.92704 0.40831 7.12856 0.414192 7.36876 0.425795C7.60889 0.437399 7.83741 0.46262 8.05448 0.501379C8.98419 0.648596 9.76096 0.966238 10.3848 1.45438C11.0083 1.94253 11.4753 2.55856 11.7852 3.30246C12.0951 4.04628 12.2502 4.8677 12.2502 5.76648C12.2502 7.09917 11.9092 8.24783 11.2275 9.2126C10.5454 10.1772 9.52269 10.7798 8.15899 11.0198L7.17111 11.1361H2.42918V17.145H0Z"
        fill="#192F3D" />
    <path
        d="M17.4453 17.145V0.40831H28.1381V2.69804H19.8745V7.39361H26.7434V9.68326H19.8745V14.8554H28.1381V17.145H17.4453Z"
        fill="#192F3D" />
    <path
        d="M39.6557 17.4937C37.982 17.4937 36.5564 17.1276 35.3786 16.3953C34.2008 15.6631 33.2999 14.6423 32.6764 13.3327C32.0526 12.0234 31.7407 10.5046 31.7407 8.77671C31.7407 7.04886 32.0526 5.53011 32.6764 4.22063C33.2999 2.91122 34.2008 1.89029 35.3786 1.15799C36.5564 0.425766 37.982 0.0596962 39.6557 0.0596962C41.585 0.0596962 43.1831 0.547844 44.4499 1.52414C45.717 2.50043 46.5982 3.81378 47.0941 5.4642L44.6302 6.12672C44.3047 4.95679 43.7255 4.0386 42.8925 3.37213C42.0596 2.70582 40.9807 2.37255 39.6557 2.37255C38.4702 2.37255 37.4824 2.63991 36.692 3.17455C35.9017 3.70919 35.3069 4.45696 34.9079 5.4177C34.5087 6.37853 34.3094 7.49817 34.3094 8.77671C34.3016 10.0552 34.4972 11.1749 34.8962 12.1356C35.2953 13.0965 35.8918 13.8442 36.6861 14.3789C37.4804 14.9134 38.4702 15.1808 39.6557 15.1808C40.9807 15.1808 42.0596 14.8457 42.8925 14.1754C43.7255 13.5052 44.3047 12.5889 44.6302 11.4266L47.0941 12.0891C46.5982 13.7396 45.717 15.0529 44.4499 16.0292C43.1831 17.0055 41.585 17.4937 39.6557 17.4937Z"
        fill="#192F3D" />
    <path
        d="M58.9604 15.1808C60.146 15.1963 61.1317 14.935 61.9183 14.3962C62.7047 13.8578 63.2956 13.1061 63.6907 12.1414C64.0859 11.1768 64.2836 10.0553 64.2836 8.77671C64.2836 7.49825 64.0859 6.38062 63.6907 5.42359C63.2956 4.46663 62.7047 3.7208 61.9183 3.18624C61.1317 2.6516 60.146 2.38045 58.9604 2.37255C57.7749 2.35716 56.7888 2.6167 56.0024 3.15135C55.2159 3.68599 54.6252 4.43771 54.2301 5.40618C53.8349 6.37482 53.6332 7.49825 53.6257 8.77671C53.6178 10.0553 53.8116 11.173 54.2068 12.1298C54.602 13.0869 55.1965 13.8326 55.9908 14.3672C56.7851 14.9019 57.7749 15.1731 58.9604 15.1808ZM58.9604 17.4937C57.2866 17.4937 55.8611 17.1276 54.6833 16.3954C53.5055 15.6631 52.6046 14.6424 51.9811 13.3327C51.3572 12.0234 51.0454 10.5046 51.0454 8.77671C51.0454 7.04886 51.3572 5.53011 51.9811 4.22063C52.6046 2.9113 53.5055 1.89029 54.6833 1.15807C55.8611 0.425766 57.2866 0.0596962 58.9604 0.0596962C60.6263 0.0596962 62.05 0.425766 63.2317 1.15807C64.4132 1.89029 65.3138 2.9113 65.9339 4.22063C66.5537 5.53011 66.8637 7.04886 66.8637 8.77671C66.8637 10.5046 66.5537 12.0234 65.9339 13.3327C65.3138 14.6424 64.4132 15.6631 63.2317 16.3954C62.05 17.1276 60.6263 17.4937 58.9604 17.4937Z"
        fill="#192F3D" />
    <path
        d="M81.2994 17.145L77.9986 10.3341L80.4509 9.70646L84.0772 17.145H81.2994ZM73.9424 8.83484H78.1845C78.3394 8.83484 78.5118 8.82719 78.7017 8.81164C78.8915 8.79608 79.0716 8.76909 79.2423 8.73017C79.738 8.61398 80.137 8.39899 80.4394 8.08514C80.7414 7.77136 80.9583 7.40916 81.0902 6.99845C81.2218 6.58782 81.2877 6.17719 81.2877 5.76648C81.2877 5.35585 81.2218 4.94699 81.0902 4.54023C80.9583 4.13339 80.7414 3.77312 80.4394 3.45935C80.137 3.14549 79.738 2.93043 79.2423 2.81431C79.0716 2.76774 78.8915 2.73688 78.7017 2.72132C78.5118 2.70585 78.3394 2.69804 78.1845 2.69804H73.9424V8.83484ZM71.5132 17.145V0.40831H78.2775C78.4402 0.40831 78.6417 0.414192 78.8819 0.425795C79.1221 0.437399 79.3506 0.46262 79.5677 0.501379C80.4974 0.648596 81.2741 0.966238 81.898 1.45438C82.5215 1.94253 82.9884 2.55856 83.2984 3.30246C83.6082 4.04628 83.7634 4.8677 83.7634 5.76648C83.7634 7.09917 83.4223 8.24783 82.7407 9.2126C82.0587 10.1772 81.0359 10.7798 79.6722 11.0198L78.6843 11.1361H73.9424V17.145H71.5132Z"
        fill="#192F3D" />
    <path
        d="M91.4457 14.8322H94.2003C94.4636 14.8322 94.7774 14.8245 95.1417 14.8089C95.5057 14.7934 95.8274 14.7624 96.1062 14.7159C96.9587 14.5532 97.6501 14.1833 98.1809 13.606C98.7117 13.0288 99.101 12.3179 99.349 11.4732C99.5969 10.6288 99.721 9.72983 99.721 8.77674C99.721 7.7928 99.5931 6.8804 99.3374 6.03964C99.0817 5.19896 98.6884 4.49374 98.1577 3.92421C97.627 3.35476 96.9432 2.99263 96.1062 2.83752C95.8274 2.78345 95.5039 2.75033 95.1358 2.73881C94.7677 2.72713 94.456 2.72132 94.2003 2.72132H91.4457V14.8322ZM88.9585 17.145V0.40839H94.2003C94.3553 0.40839 94.6437 0.412418 95.0661 0.419992C95.4883 0.427809 95.8932 0.458914 96.2806 0.512981C97.5901 0.675671 98.6924 1.14464 99.5874 1.91932C100.482 2.69425 101.158 3.67635 101.615 4.86569C102.073 6.05519 102.301 7.35872 102.301 8.77674C102.301 10.2025 102.073 11.5101 101.615 12.6993C101.158 13.8889 100.482 14.869 99.5874 15.6399C98.6924 16.411 97.5901 16.8777 96.2806 17.0404C95.8932 17.0947 95.4883 17.1258 95.0661 17.1334C94.6437 17.1413 94.3553 17.145 94.2003 17.145H88.9585Z"
        fill="#192F3D" />
    <path
        d="M113.4 17.4937C112.199 17.4937 111.117 17.2862 110.152 16.8719C109.187 16.4574 108.393 15.8647 107.769 15.0936C107.145 14.3227 106.741 13.4065 106.555 12.3448L109.088 11.9613C109.344 12.9841 109.879 13.7802 110.692 14.3498C111.506 14.9193 112.455 15.204 113.54 15.204C114.214 15.204 114.834 15.0976 115.399 14.8844C115.965 14.6713 116.42 14.3653 116.765 13.9662C117.11 13.5672 117.282 13.0887 117.282 12.5308C117.282 12.2286 117.23 11.9613 117.125 11.7288C117.021 11.4964 116.877 11.2929 116.695 11.1187C116.513 10.9443 116.292 10.7933 116.033 10.6653C115.773 10.5374 115.488 10.427 115.179 10.3341L110.89 9.06728C110.471 8.94335 110.045 8.78252 109.611 8.58486C109.177 8.38728 108.78 8.12773 108.42 7.80622C108.06 7.48471 107.767 7.08561 107.542 6.60898C107.318 6.13252 107.206 5.5534 107.206 4.87146C107.206 3.84102 107.471 2.9673 108.002 2.25055C108.532 1.53389 109.251 0.991428 110.157 0.623344C111.064 0.255421 112.079 0.0712986 113.203 0.0712986C114.334 0.0869312 115.347 0.288298 116.242 0.67564C117.137 1.06322 117.881 1.61906 118.474 2.34354C119.066 3.06811 119.475 3.94561 119.7 4.97605L117.096 5.4177C116.98 4.79008 116.732 4.24971 116.352 3.7963C115.973 3.34304 115.508 2.99438 114.958 2.7503C114.407 2.50623 113.811 2.38045 113.168 2.37255C112.548 2.35716 111.98 2.45007 111.465 2.65151C110.95 2.85304 110.539 3.13579 110.233 3.50001C109.927 3.86431 109.774 4.28275 109.774 4.75527C109.774 5.22013 109.91 5.59611 110.181 5.88264C110.452 6.16942 110.787 6.39601 111.186 6.56257C111.585 6.72929 111.982 6.86667 112.377 6.97521L115.469 7.84683C115.856 7.95553 116.296 8.10074 116.788 8.28269C117.28 8.46487 117.757 8.71854 118.218 9.04407C118.679 9.36945 119.06 9.80143 119.363 10.3399C119.665 10.8786 119.816 11.5545 119.816 12.3681C119.816 13.2127 119.645 13.9545 119.304 14.5938C118.963 15.2331 118.497 15.7677 117.904 16.1977C117.311 16.6278 116.627 16.9514 115.852 17.1682C115.078 17.3851 114.26 17.4937 113.4 17.4937Z"
        fill="#192F3D" />
    <path
        d="M129.656 8.68822C129.656 13.4868 129.01 17.377 128.213 17.377C127.417 17.377 126.771 13.4868 126.771 8.68822C126.771 3.88959 127.417 -0.000518799 128.213 -0.000518799C129.01 -0.000518799 129.656 3.88959 129.656 8.68822Z"
        fill="#192F3D" />
    <path
        d="M132.571 8.68843C132.571 13.3815 131.992 17.186 131.277 17.186C130.563 17.186 129.983 13.3815 129.983 8.68843C129.983 3.99536 130.563 0.19083 131.277 0.19083C131.992 0.19083 132.571 3.99536 132.571 8.68843Z"
        fill="#192F3D" />
    <path
        d="M135.255 8.68871C135.255 13.1216 134.727 16.7151 134.076 16.7151C133.425 16.7151 132.897 13.1216 132.897 8.68871C132.897 4.25583 133.425 0.662331 134.076 0.662331C134.727 0.662331 135.255 4.25583 135.255 8.68871Z"
        fill="#192F3D" />
    <path
        d="M137.411 8.68835C137.411 12.6582 137.002 15.8765 136.497 15.8765C135.992 15.8765 135.583 12.6582 135.583 8.68835C135.583 4.71847 135.992 1.50023 136.497 1.50023C137.002 1.50023 137.411 4.71847 137.411 8.68835Z"
        fill="#192F3D" />
    <path
        d="M139.025 8.68834C139.025 11.6952 138.737 14.1328 138.382 14.1328C138.026 14.1328 137.738 11.6952 137.738 8.68834C137.738 5.68146 138.026 3.24387 138.382 3.24387C138.737 3.24387 139.025 5.68146 139.025 8.68834Z"
        fill="#192F3D" />
    <path
        d="M140 8.68857C140 10.2031 139.855 11.4309 139.676 11.4309C139.497 11.4309 139.352 10.2031 139.352 8.68857C139.352 7.17401 139.497 5.94623 139.676 5.94623C139.855 5.94623 140 7.17401 140 8.68857Z"
        fill="#192F3D" />
</svg>