<svg width="329" height="79" viewBox="0 0 329 79" fill="none" xmlns="http://www.w3.org/2000/svg">
<path d="M105.379 0.738464C102.036 1.20394 99.5963 2.07669 97.1564 3.66706C92.3918 6.77021 89.5292 11.3279 88.0691 18.0967C87.7617 19.4543 87.7041 20.5792 87.7041 24.4C87.7041 28.2207 87.7617 29.3456 88.0691 30.7032C89.5292 37.5301 92.3726 42.0103 97.2717 45.191C102.574 48.6821 111.239 49.3415 117.713 46.7814C122.728 44.7837 126.993 40.1678 128.818 34.7567L129.26 33.4767L126.186 32.6427C124.476 32.1966 122.977 31.8087 122.804 31.7893C122.632 31.7699 122.401 32.1384 122.17 32.7784C120.691 37.1616 117.406 40.323 113.16 41.4866C111.392 41.9909 106.666 41.9909 104.899 41.4866C102.536 40.8466 100.941 39.9157 99.2313 38.1896C96.7722 35.7264 95.4465 32.8366 94.7933 28.4922C94.3899 25.9127 94.5436 21.0447 95.0815 18.6397C96.4456 12.6274 99.8461 8.70967 104.899 7.31326C105.84 7.04173 106.858 6.96415 109.029 6.96415C112.295 6.96415 113.467 7.19689 115.85 8.34117C118.501 9.62122 121.229 12.9377 122.19 16.0602C122.324 16.4869 122.478 16.8942 122.555 16.9718C122.651 17.0688 128.011 15.7499 129.106 15.3426C129.317 15.2651 128.568 13.1317 127.761 11.5025C125.629 7.21628 121.863 3.66706 117.713 2.01851C114.14 0.602703 109.625 0.13723 105.379 0.738464Z" fill="#192F3D"/>
<path d="M158.919 0.658646C151.774 1.49298 146.338 5.23778 143.284 11.408C141.402 15.2304 140.749 18.102 140.615 23.3409C140.461 29.3364 141.114 32.8484 143.246 37.2141C145.032 40.9201 147.26 43.4037 150.602 45.4604C155.193 48.2738 162.242 49.1082 168.311 47.5753C175.13 45.8291 180.181 40.6484 182.313 33.1976C183.773 28.114 183.773 20.702 182.313 15.6184C180.181 8.16764 175.149 3.00642 168.311 1.24074C165.449 0.503418 162.011 0.289986 158.919 0.658646ZM165.449 7.21689C172.095 8.61391 175.956 14.202 176.417 23.1468C176.628 27.3379 175.898 31.3349 174.323 34.5947C172.479 38.4365 169.368 40.8813 165.353 41.6962C163.413 42.0843 159.745 41.9872 157.939 41.5022C154.348 40.532 151.39 38.1454 149.719 34.8663C146.78 29.0648 146.761 20.1782 149.7 14.0468C150.429 12.5527 150.852 11.9512 152.139 10.6512C154.252 8.5169 156.461 7.37212 159.284 6.98405C160.859 6.77062 163.817 6.88704 165.449 7.21689Z" fill="#192F3D"/>
<path d="M307.299 0.578732C300.461 1.35695 295.577 4.72275 294.014 9.72281C293.799 10.4232 293.564 11.7656 293.506 12.7384C293.154 18.1276 295.674 22.0381 300.871 24.2172C301.672 24.5674 305.423 25.7347 309.174 26.8436C316.364 28.9448 318.278 29.6647 319.49 30.7347C321.932 32.8748 321.854 36.7465 319.314 39.1979C316.071 42.3302 309.448 42.9722 304.622 40.6181C302.121 39.3924 299.796 36.6881 298.917 33.9838C298.741 33.4391 298.585 33.264 298.273 33.264C297.55 33.2834 291.865 34.1978 291.728 34.3146C291.552 34.4897 292.392 37.2523 293.076 38.692C295.225 43.3419 299.718 46.6493 305.56 47.9139C308.021 48.4392 312.867 48.4782 315.387 47.9918C320.779 46.9217 324.862 44.2563 326.816 40.5209C327.871 38.4975 328.223 36.98 328.223 34.3924C328.223 30.5986 327.461 28.5752 325.214 26.3573C322.733 23.9253 321.092 23.2055 312.222 20.6957C305.833 18.8864 304.251 18.3416 302.922 17.4661C301.125 16.2793 300.304 14.431 300.676 12.4466C300.93 11.1431 301.32 10.4427 302.375 9.39207C305.267 6.51266 311.304 5.9679 315.582 8.20528C317.888 9.41152 319.939 11.9407 320.603 14.3532C320.799 15.1314 320.857 15.1898 321.346 15.0925C321.639 15.0342 323.241 14.7618 324.901 14.4894C326.562 14.1976 327.949 13.9447 327.988 13.9252C328.086 13.8085 326.992 10.5789 326.523 9.62554C324.257 5.15077 319.763 1.9017 314.43 0.890018C312.398 0.520363 309.155 0.364719 307.299 0.578732Z" fill="#192F3D"/>
<path d="M0.81543 24.398L0.81543 47.0742H4.08097H7.3465V38.9483L7.3465 30.8223H13.3781H19.3906L23.3284 38.8909L27.2663 46.9786L31.0312 47.036C33.1058 47.0551 34.8154 47.036 34.8154 46.9977C34.8154 46.9404 32.9137 43.0208 30.5894 38.2791C28.2651 33.5182 26.3634 29.5986 26.3634 29.5604C26.3634 29.5221 26.786 29.2736 27.2855 29.025C30.2245 27.5337 32.4527 24.5701 33.5092 20.7078C34.1047 18.5855 34.0855 13.9585 33.49 11.798C32.107 6.73118 28.9759 3.59552 24.0007 2.29536C22.5024 1.89384 21.9646 1.87472 11.6301 1.81736L0.81543 1.74088L0.81543 24.398ZM22.7906 8.62405C24.2505 9.21677 25.6335 10.5552 26.3634 12.1421C28.4764 16.6353 26.7284 22.3904 22.7906 23.9582C21.6764 24.398 21.5228 24.4171 14.5115 24.4745L7.3465 24.5318V16.2911V8.05046L14.5115 8.10782C21.542 8.16518 21.6764 8.16518 22.7906 8.62405Z" fill="#192F3D"/>
<path d="M48.6675 24.4076V47.0742H63.149H77.6304L77.5923 43.9564L77.5352 40.8576L66.4454 40.8002L55.3366 40.762V33.7803V26.7985H64.5781H73.8195V23.7381V20.6776H64.5781H55.3366V14.3654V8.05312L66.4454 8.01487L77.5352 7.95748L77.5923 4.83962L77.6304 1.74088H63.149H48.6675V24.4076Z" fill="#192F3D"/>
<path d="M196 24.398V47.0742H199.345H202.69V38.9483V30.8223H208.672H214.635L218.552 38.9483L222.47 47.0742H226.235H230L228.873 44.7225C228.261 43.4414 226.388 39.5601 224.687 36.0994C223.006 32.6387 221.61 29.7516 221.61 29.6751C221.61 29.5986 222.184 29.1971 222.872 28.7956C225.911 27.0174 227.975 23.92 228.796 19.9239C229.236 17.7251 229.083 13.3658 228.51 11.3582C227.115 6.59734 224.095 3.65287 219.221 2.29536C217.731 1.89384 217.368 1.87472 206.856 1.79824L196 1.74088V24.398ZM218.075 8.70053C220.884 10.0007 222.375 12.6584 222.375 16.2911C222.375 19.9239 220.884 22.5816 218.075 23.8818L216.928 24.4171L209.818 24.4745L202.69 24.5318V16.2911V8.05046L209.818 8.10782L216.928 8.16518L218.075 8.70053Z" fill="#192F3D"/>
<path d="M243.853 24.4076V47.0742H252.364C261.302 47.0742 263.9 46.9212 266.44 46.29C273.614 44.4919 278.5 38.4475 280.051 29.4765C280.478 27.0281 280.478 21.787 280.051 19.3386C279.043 13.5237 276.406 8.55045 272.742 5.62387C271.152 4.34229 268.457 3.02246 266.44 2.52513C263.881 1.89391 261.283 1.74088 252.364 1.74088H243.853V24.4076ZM264.288 8.51219C267.487 9.43034 269.62 11.3049 271.287 14.6523C272.683 17.445 273.304 20.4672 273.323 24.4076C273.323 31.7527 270.589 37.5485 266.188 39.5569C264.017 40.5707 263.551 40.6281 256.901 40.7046L250.639 40.8002V24.4076V8.01487L256.901 8.1105C262.078 8.16789 263.338 8.2444 264.288 8.51219Z" fill="#192F3D"/>
<path d="M143.696 69.7768C143.604 69.8347 143.291 69.9119 143.015 69.9699C142.278 70.1436 141.376 71.0317 140.971 72.0163C140.455 73.2132 140.474 75.3176 140.989 76.3987C141.984 78.4451 144.377 79.1595 146.347 78.0011C148.833 76.5146 148.723 71.5722 146.163 70.1822C145.685 69.9119 144.027 69.6417 143.696 69.7768ZM145.777 71.3792C146.366 71.7653 146.918 73.0974 146.918 74.1399C146.918 75.2018 146.366 76.5146 145.758 76.9393C144.617 77.7115 142.996 77.3833 142.333 76.2443C141.284 74.4295 141.873 71.6688 143.42 71.1089C144.156 70.8579 145.151 70.9545 145.777 71.3792Z" fill="#192F3D"/>
<path d="M213.115 69.777C213.019 69.8351 212.694 69.9127 212.407 69.9709C210.108 70.4945 209.036 74.5668 210.568 76.9521C212.081 79.2985 216.199 79.0077 217.233 76.4867C217.501 75.8079 217.501 75.8079 216.811 75.6334C216.39 75.5365 216.256 75.614 215.911 76.2152C215.203 77.4175 213.536 77.7666 212.311 76.9715C211.679 76.5448 211.104 75.2262 211.104 74.1596C211.104 73.0736 211.679 71.7744 212.349 71.3283C213.019 70.8823 214.532 70.8823 215.203 71.3089C215.471 71.5029 215.835 71.9101 216.007 72.2398C216.256 72.744 216.371 72.8215 216.811 72.7052C217.463 72.55 217.482 72.5307 217.328 72.0458C217.156 71.4641 216.313 70.5139 215.701 70.1842C215.184 69.9127 213.479 69.6412 213.115 69.777Z" fill="#192F3D"/>
<path d="M226.421 69.8757C225.337 70.1494 224.627 70.7945 224.123 71.9479C223.73 72.8472 223.656 73.2382 223.73 74.4112C223.805 76.1511 224.272 77.1676 225.356 77.9692C226.066 78.497 226.309 78.5557 227.505 78.5557C228.663 78.5557 228.962 78.4775 229.635 78.0083C230.83 77.1872 231.26 76.1706 231.26 74.157C231.26 72.6908 231.204 72.378 230.737 71.5569C229.934 70.1298 228.159 69.426 226.421 69.8757ZM228.925 71.4005C229.635 71.9284 230.046 72.9254 230.046 74.2157C230.046 75.4668 229.784 76.1511 229.018 76.894C228.607 77.2849 228.327 77.3827 227.561 77.3631C225.804 77.3436 225.001 76.327 225.001 74.157C225.001 72.9254 225.263 72.163 225.898 71.5569C226.701 70.7945 228.009 70.7359 228.925 71.4005Z" fill="#192F3D"/>
<path d="M72.7368 69.8811C72.6548 69.9412 72.5933 71.9245 72.5933 74.2885V78.5557H73.2082H73.8232L73.8437 75.5907V72.6457L75.2992 75.5907C76.2832 77.594 76.8572 78.5557 77.0827 78.5557C77.3082 78.5557 77.8617 77.6141 78.7431 75.7309L80.0756 72.9262L80.1371 75.751L80.1986 78.5557H80.7931H81.4081V74.1483V69.7408H80.8546C80.3216 69.7408 80.1781 69.9612 78.6611 73.0063L77.0622 76.2518L75.4427 72.9863C74.0282 70.1616 73.7617 69.7408 73.3517 69.7408C73.0853 69.7408 72.7983 69.801 72.7368 69.8811Z" fill="#192F3D"/>
<path d="M89.2063 73.8584C88.4447 76.1371 87.786 78.1159 87.7242 78.2758C87.6419 78.4757 87.8066 78.5557 88.3212 78.5557C88.9799 78.5557 89.0417 78.4957 89.3298 77.5962L89.6386 76.6568L91.4912 76.5968L93.3439 76.5369L93.6526 77.4963C93.9202 78.3558 94.0232 78.4557 94.6201 78.5157C95.073 78.5557 95.2788 78.4957 95.2583 78.3158C95.2583 78.1759 94.6201 76.217 93.8791 73.9584L92.4793 69.8608L91.5324 69.8008L90.5649 69.7408L89.2063 73.8584ZM92.2117 73.2988C92.5411 74.2782 92.8087 75.1177 92.8087 75.1976C92.8087 75.2976 92.1911 75.3575 91.4501 75.3575C90.3179 75.3575 90.1121 75.2976 90.215 75.0577C90.2767 74.8978 90.5649 73.9983 90.8737 73.0389C91.1619 72.0995 91.4501 71.3799 91.5118 71.4398C91.5942 71.4998 91.9029 72.3393 92.2117 73.2988Z" fill="#192F3D"/>
<path d="M100.297 74.1487V78.5557H100.849H101.401V76.5525C101.401 75.4508 101.457 74.5493 101.549 74.5694C101.622 74.5694 102.432 75.4708 103.335 76.5725C104.936 78.4755 105.01 78.5356 105.802 78.5557H106.593L104.881 76.5325C103.924 75.4307 103.077 74.4091 102.985 74.2489C102.856 74.0686 103.261 73.4476 104.494 72.0053C105.433 70.9036 106.188 69.9421 106.188 69.8619C106.188 69.8018 105.912 69.7417 105.562 69.7417C104.899 69.7417 105.047 69.6015 102.267 72.8466L101.401 73.8482V71.785V69.7417H100.849H100.297V74.1487Z" fill="#192F3D"/>
<path d="M111.756 69.8811C111.684 69.9412 111.63 71.9245 111.63 74.2885V78.5557H114.149H116.667V77.9547V77.3536H114.779H112.89V75.9513V74.5489H114.527H116.146L116.092 73.988C116.038 73.4471 116.038 73.4471 114.473 73.387L112.89 73.3269V72.1449V70.9429H114.779H116.667V70.3419V69.7408H114.275C112.944 69.7408 111.81 69.801 111.756 69.8811Z" fill="#192F3D"/>
<path d="M129.263 69.8811C129.298 69.9813 129.917 71.1833 130.623 72.5856L131.895 75.0898V76.8328V78.5557H132.425H132.956V76.7526V74.9696L134.21 72.5055C134.899 71.1432 135.5 69.9813 135.553 69.8811C135.588 69.801 135.323 69.7408 134.952 69.7408C134.281 69.7408 134.245 69.7809 133.486 71.2834C132.337 73.6073 132.496 73.5873 131.471 71.604C130.606 69.9212 130.535 69.841 129.881 69.7809C129.51 69.7408 129.227 69.7809 129.263 69.8811Z" fill="#192F3D"/>
<path d="M154.5 73.1675C154.554 77.0865 154.645 77.3425 156.119 78.1696C157.575 78.9967 159.559 78.4453 160.378 76.988C160.705 76.4169 160.742 75.9836 160.742 73.0887V69.8393H160.196H159.65L159.559 73.0099C159.468 76.4169 159.413 76.5941 158.412 77.1652C157.684 77.5591 156.829 77.3622 156.174 76.6138L155.646 76.023L155.592 72.8721L155.519 69.7408H154.973H154.445L154.5 73.1675Z" fill="#192F3D"/>
<path d="M168.43 69.8791C168.354 69.9393 168.297 71.923 168.297 74.2875V78.5557H168.965H169.632V76.9526V75.3496H170.682H171.731L172.494 76.9526C173.239 78.4955 173.296 78.5557 173.925 78.5557C174.288 78.5557 174.593 78.5156 174.593 78.4555C174.593 78.3954 174.25 77.6339 173.83 76.7522C173.086 75.2093 173.086 75.1492 173.448 74.9488C174.116 74.5681 174.46 73.6062 174.364 72.3238C174.269 70.9612 173.773 70.2599 172.704 69.9393C171.941 69.7188 168.621 69.6587 168.43 69.8791ZM172.781 71.362C173.296 71.903 173.353 72.965 172.876 73.6062C172.494 74.1072 172.361 74.1473 171.044 74.1473H169.632V72.5242V70.9011L171.063 70.9812C172.017 71.0213 172.59 71.1415 172.781 71.362Z" fill="#192F3D"/>
<path d="M187.32 69.8791C187.243 69.9393 187.186 71.923 187.186 74.2875V78.5557H187.854H188.522V76.9526V75.3496H189.571H190.62L191.384 76.9526C192.128 78.4955 192.185 78.5557 192.815 78.5557C193.177 78.5557 193.482 78.5156 193.482 78.4555C193.482 78.3954 193.139 77.6339 192.719 76.7522C191.975 75.2093 191.975 75.1492 192.338 74.9488C193.005 74.5681 193.349 73.6062 193.253 72.3238C193.158 70.9612 192.662 70.2599 191.593 69.9393C190.83 69.7188 187.51 69.6587 187.32 69.8791ZM191.155 71.0614C191.613 71.2017 192.147 72.0633 192.147 72.7045C192.147 72.9249 191.975 73.3257 191.746 73.6263C191.384 74.1072 191.25 74.1473 189.934 74.1473H188.522V72.5442V70.9412H189.628C190.22 70.9412 190.907 71.0013 191.155 71.0614Z" fill="#192F3D"/>
<path d="M199.778 74.1483V78.5557H202.297H204.815V77.9547V77.3737L202.89 77.3136L200.948 77.2535V75.9513V74.6491L202.531 74.589L204.096 74.5289V73.9479V73.3469H202.477H200.84L200.894 72.185L200.948 71.043L202.89 70.9829L204.815 70.9228V70.3419V69.7408H202.297H199.778V74.1483Z" fill="#192F3D"/>
<path d="M237.69 69.8775C237.613 69.9376 237.556 71.9218 237.556 74.2867V78.5557H238.224H238.892V76.9523V75.3489H239.941H240.99L241.754 76.9523C242.498 78.4955 242.555 78.5557 243.185 78.5557C243.547 78.5557 243.852 78.5156 243.852 78.4555C243.852 78.3953 243.509 77.6337 243.089 76.7519C242.345 75.2087 242.345 75.1485 242.708 74.9481C243.7 74.3869 244.005 72.1222 243.223 70.9197C242.975 70.5389 242.498 70.138 242.135 69.9977C241.429 69.7372 237.9 69.637 237.69 69.8775ZM241.62 71.1201C242.173 71.3405 242.593 72.3426 242.421 72.984C242.135 73.966 241.792 74.1464 240.285 74.1464H238.892V72.5431V70.9397H240.017C240.647 70.9397 241.372 71.0199 241.62 71.1201Z" fill="#192F3D"/>
<path d="M248.89 74.1483V78.5557H250.576C252.788 78.5557 253.44 78.3353 254.22 77.3136C255.289 75.9313 255.507 73.5072 254.691 71.7442C254.002 70.2417 253.005 69.7609 250.576 69.7408H248.89V74.1483ZM252.516 71.2033C253.785 71.6841 254.347 74.0882 253.621 75.8912C253.168 76.993 252.461 77.3937 251.101 77.3136L250.068 77.2535L250.014 74.3486C249.996 72.7659 250.014 71.3435 250.05 71.2033C250.177 70.8828 251.645 70.8828 252.516 71.2033Z" fill="#192F3D"/>
</svg>
