<svg version="1.1" xmlns="http://www.w3.org/2000/svg" xmlns:xlink="http://www.w3.org/1999/xlink">
    <defs>

        <symbol id="icon-flag-ukraine" viewBox="0 0 32 24" fill="none"
            xmlns="http://www.w3.org/2000/svg">
            <g clip-path="url(#clip0_225_11)">
                <path fill-rule="evenodd" clip-rule="evenodd" d="M0 0H32V24H0V0Z" fill="#FFD700" />
                <path fill-rule="evenodd" clip-rule="evenodd" d="M0 0H32V12H0V0Z" fill="#0057B8" />
            </g>
            <defs>
                <clipPath id="clip0_225_11">
                    <rect width="32" height="24" fill="white" />
                </clipPath>
            </defs>
        </symbol>

        <symbol id="icon-flag-poland" viewBox="0 0 32 24" fill="none"
            xmlns="http://www.w3.org/2000/svg">
            <path fill-rule="evenodd" clip-rule="evenodd" d="M32 24H0V0H32V24Z" fill="white" />
            <path fill-rule="evenodd" clip-rule="evenodd" d="M32 24H0V12H32V24Z" fill="#DC143C" />
        </symbol>

        <symbol id="icon-flag-english" viewBox="0 0 32 24" fill="none"
            xmlns="http://www.w3.org/2000/svg">
            <path d="M0 0H32V24H0V0Z" fill="#012169" />
            <path
                d="M3.75 0L15.95 9.05L28.1 0H32V3.1L20 12.05L32 20.95V24H28L16 15.05L4.05 24H0V21L11.95 12.1L0 3.2V0H3.75Z"
                fill="white" />
            <path
                d="M21.2 14.05L32 22V24L18.45 14.05H21.2ZM12 15.05L12.3 16.8L2.7 24H0L12 15.05ZM32 0V0.15L19.55 9.55L19.65 7.35L29.5 0H32ZM0 0L11.95 8.8H8.95L0 2.1V0Z"
                fill="#C8102E" />
            <path d="M12.05 0V24H20.05V0H12.05ZM0 8V16H32V8H0Z" fill="white" />
            <path d="M0 9.65V14.45H32V9.65H0ZM13.65 0V24H18.45V0H13.65Z" fill="#C8102E" />
        </symbol>


        <symbol id="icon-burger" viewBox="0 0 40 24" fill="none"
            xmlns="http://www.w3.org/2000/svg">
            <path d="M4 4H36" stroke="#192F3D" stroke-width="2" stroke-linecap="round" />
            <path d="M4 12H24" stroke="#192F3D" stroke-width="2" stroke-linecap="round" />
            <path d="M4 20H36" stroke="#192F3D" stroke-width="2" stroke-linecap="round" />
        </symbol>

        <symbol id="icon-close" viewBox="0 0 12 12" fill="none"
            xmlns="http://www.w3.org/2000/svg">
            <path fill-rule="evenodd" clip-rule="evenodd"
                d="M9.42552 3.22552C9.46828 3.18282 9.50221 3.13211 9.52537 3.07629C9.54853 3.02047 9.56047 2.96064 9.56051 2.9002C9.56054 2.83977 9.54868 2.77992 9.52558 2.72408C9.50249 2.66823 9.46863 2.61748 9.42592 2.57472C9.38322 2.53196 9.33251 2.49803 9.27669 2.47487C9.22087 2.45171 9.16104 2.43977 9.1006 2.43974C9.04017 2.4397 8.98032 2.45157 8.92448 2.47466C8.86863 2.49775 8.81788 2.53162 8.77512 2.57432L5.99992 5.34952L3.22552 2.57432C3.13917 2.48797 3.02204 2.43945 2.89992 2.43945C2.7778 2.43945 2.66068 2.48797 2.57432 2.57432C2.48797 2.66068 2.43945 2.7778 2.43945 2.89992C2.43945 3.02204 2.48797 3.13917 2.57432 3.22552L5.34952 5.99992L2.57432 8.77432C2.53156 8.81708 2.49764 8.86784 2.4745 8.92371C2.45136 8.97957 2.43945 9.03945 2.43945 9.09992C2.43945 9.16039 2.45136 9.22027 2.4745 9.27613C2.49764 9.332 2.53156 9.38276 2.57432 9.42552C2.66068 9.51187 2.7778 9.56039 2.89992 9.56039C2.96039 9.56039 3.02027 9.54848 3.07613 9.52534C3.132 9.5022 3.18276 9.46828 3.22552 9.42552L5.99992 6.65032L8.77512 9.42552C8.86148 9.51177 8.97856 9.56018 9.1006 9.56011C9.22265 9.56003 9.33967 9.51147 9.42592 9.42512C9.51217 9.33877 9.56058 9.22169 9.56051 9.09964C9.56043 8.97759 9.51188 8.86057 9.42552 8.77432L6.65032 5.99992L9.42552 3.22552Z"
                fill="#8D9FB9" />
        </symbol>


        <symbol id="icon-seven" viewBox="0 0 145 144" fill="none"
            xmlns="http://www.w3.org/2000/svg">
            <path d="M48.5 49.9397V36H103.5V49.9397L69.2927 113H53.8659L88.0732 49.9397H48.5Z"
                fill="#8D9FB9" stroke="#192F3D" stroke-width="3" />
            <circle cx="72.5" cy="72" r="71" stroke="#8D9FB9" stroke-width="2" />
        </symbol>

        <symbol id="icon-profi" viewBox="0 0 144 144" fill="none"
            xmlns="http://www.w3.org/2000/svg">
            <circle cx="72" cy="72" r="71" stroke="#8D9FB9" stroke-width="2" />
            <path
                d="M42.1298 30C39.0862 30 36.5672 32.4969 36.5672 35.5357V39.2309C36.5672 40.8524 37.2981 42.3107 38.4287 43.3307V48.4802C35.3841 48.4802 32.8948 51.0468 33.0034 54.0846L34.7239 102.055C34.7239 104.448 36.2845 106.492 38.4287 107.263V109.45C38.4287 112.489 40.929 115 43.9732 115H66.1874C69.2316 115 71.7319 112.489 71.7319 109.45V107.263C73.8761 106.492 75.4331 104.448 75.4331 102.055L77.1535 54.0846C77.2622 51.0468 74.7764 48.4802 71.7319 48.4802V43.3307C72.8625 42.3107 73.5897 40.8524 73.5897 39.2309V35.5357C73.5897 32.4969 71.0744 30 68.0307 30H42.1298ZM42.1298 33.6952H68.0307C69.088 33.6952 69.8885 34.4801 69.8885 35.5357V39.2309C69.8885 40.2866 69.088 41.086 68.0307 41.086H42.1298C41.0726 41.086 40.272 40.2866 40.272 39.2309V35.5357C40.272 34.4801 41.0726 33.6952 42.1298 33.6952ZM42.1298 44.7848H68.0307V48.4802H42.1298V44.7848ZM38.4287 52.1756H71.7319C72.7295 52.1756 73.488 52.9555 73.4524 53.9509L71.7319 101.987C71.7315 102.01 71.7315 102.033 71.7319 102.057C71.7319 103.099 70.9325 103.912 69.8885 103.912H40.272C39.2281 103.912 38.4287 103.099 38.4287 102.057C38.4291 102.033 38.4291 102.01 38.4287 101.987L36.7046 53.9509C36.669 52.9555 37.4311 52.1756 38.4287 52.1756ZM60.0248 55.5714C58.0406 55.543 55.6103 55.5147 53.808 57.3181C53.5827 57.5432 53.3873 57.7795 53.2152 58.0217C51.9476 57.4582 50.5859 57.4792 49.4237 57.4951C47.7931 57.5178 46.4057 57.7695 46.4057 57.7695C45.6438 57.9089 45.0495 58.5088 44.9165 59.2707C44.9165 59.2707 44.6634 60.6415 44.6418 62.2696C44.6202 63.8975 44.5554 65.9182 46.1599 67.5202C47.7644 69.1222 49.8027 69.072 51.4333 69.0503C51.7539 69.0462 51.9724 69.0105 52.2647 68.9935V70.6465C52.2754 71.1294 52.4751 71.5889 52.8209 71.9266C53.1668 72.2644 53.6314 72.4536 54.1152 72.4536C54.5991 72.4536 55.0636 72.2644 55.4095 71.9266C55.7554 71.5889 55.9551 71.1294 55.9658 70.6465V68.9396C58.3031 69.041 60.6584 68.5517 62.0453 67.7522C63.7902 66.7463 65.5151 63.3823 65.5151 61.0579C65.4888 59.0769 65.1898 57.3878 65.1898 57.3878C65.0499 56.6271 64.4494 56.0338 63.6862 55.9011C63.6862 55.9011 62.009 55.598 60.0248 55.5714ZM60.3501 59.3064C60.7785 59.329 61.2119 59.363 61.6621 59.4032C62.0132 61.1564 61.6734 62.7871 61.1453 64.6433C60.9226 64.8655 59.2267 65.3467 57.5923 65.3255C56.6916 65.3142 56.4725 65.2444 55.9008 65.1741C55.8297 64.6029 55.7609 64.3886 55.749 63.4853C55.7273 61.8534 56.195 60.1601 56.4176 59.9379C57.837 59.3653 59.065 59.2512 60.3501 59.3064ZM49.4635 61.1901C50.7444 61.1788 52.0338 61.6017 52.0586 61.6266C52.0586 61.6266 52.0851 61.6834 52.0912 61.6896C52.0511 62.3202 52.0401 62.9414 52.0478 63.5227C52.0569 64.2036 52.1164 64.7396 52.1671 65.2947C51.896 65.3174 51.6765 65.3456 51.3755 65.3513C50.0946 65.3626 48.8052 64.9403 48.7803 64.9148C48.7555 64.8864 48.326 63.6025 48.343 62.3237C48.3503 61.7749 48.3968 61.7037 48.4406 61.2881C48.8553 61.2484 48.9175 61.1975 49.4635 61.1901ZM105.024 65.1056C104.033 65.1113 103.224 65.9031 103.192 66.8919C103.192 66.8919 103.125 68.4889 102.552 69.9884C102.266 70.738 101.858 71.4094 101.403 71.8323C100.948 72.2553 100.491 72.4998 99.6532 72.4998C95.7195 72.4998 92.1616 72.8855 89.4787 74.6544C88.1372 75.5387 87.0477 76.8462 86.5401 78.4724C86.1906 79.5923 86.117 80.8277 86.2654 82.1605C84.2609 83.0019 82.839 84.9933 82.839 87.2848V89.4681C80.6971 90.2388 79.1342 92.2732 79.1342 94.6611V102.055C79.1342 109.177 84.9522 115 92.0846 115H105.05C112.182 115 118 109.177 118 102.055V94.6611C118 92.2689 116.443 90.232 114.299 89.4645V87.2848C114.299 85.2344 113.148 83.4427 111.472 82.4817C113.101 78.6733 112.123 74.6319 110.637 71.6662C108.861 68.118 106.347 65.6504 106.347 65.6504C105.997 65.2983 105.521 65.1022 105.024 65.1056ZM105.953 71.3957C106.548 72.2065 106.763 72.2082 107.319 73.319C108.663 76.0013 109.367 78.9426 107.724 81.7346H89.9413C89.8457 80.8297 89.9095 80.1084 90.0787 79.5659C90.3281 78.7669 90.7528 78.2378 91.5136 77.7362C93.0353 76.7332 96.0213 76.1952 99.6533 76.1952C101.381 76.1952 102.893 75.5088 103.929 74.5461C104.939 73.6078 105.534 72.469 105.953 71.3957ZM47.6743 74.3403C47.4279 74.3349 47.1828 74.3787 46.9535 74.4691C46.7242 74.5595 46.5153 74.6947 46.339 74.8668C46.1628 75.0389 46.0227 75.2444 45.9271 75.4713C45.8315 75.6982 45.7823 75.9418 45.7823 76.1879C45.7823 76.4341 45.8315 76.6779 45.9271 76.9047C46.0227 77.1316 46.1628 77.3371 46.339 77.5093C46.5153 77.6814 46.7242 77.8166 46.9535 77.907C47.1828 77.9974 47.4279 78.0412 47.6743 78.0357H62.4826C62.7291 78.0412 62.9742 77.9974 63.2035 77.907C63.4328 77.8166 63.6417 77.6814 63.8179 77.5093C63.9942 77.3371 64.1342 77.1316 64.2298 76.9047C64.3254 76.6779 64.3747 76.4341 64.3747 76.1879C64.3747 75.9418 64.3254 75.6982 64.2298 75.4713C64.1342 75.2444 63.9942 75.0389 63.8179 74.8668C63.6417 74.6947 63.4328 74.5595 63.2035 74.4691C62.9742 74.3787 62.7291 74.3349 62.4826 74.3403H47.6743ZM45.9936 79.8906C43.7522 79.8906 42.1298 81.8703 42.1298 84.0118V96.0938C42.1298 98.2352 43.7522 100.215 45.9936 100.215H64.1633C66.4047 100.215 68.0307 98.2352 68.0307 96.0938V84.0118C68.0307 81.8703 66.4047 79.8906 64.1633 79.8906H45.9936ZM45.9936 83.5896H64.1633C64.1545 83.5896 64.326 83.6463 64.326 84.0119V96.094C64.326 96.4597 64.1544 96.5198 64.1633 96.5198H45.9936C46.0025 96.5198 45.831 96.4631 45.831 96.094V84.0119C45.831 83.6457 46.0026 83.5896 45.9936 83.5896ZM49.5322 85.43C49.2857 85.4245 49.0406 85.4683 48.8113 85.5587C48.582 85.6491 48.3731 85.7843 48.1968 85.9564C48.0206 86.1286 47.8805 86.3341 47.7849 86.561C47.6893 86.7878 47.6401 87.0316 47.6401 87.2777C47.6401 87.5239 47.6893 87.7675 47.7849 87.9944C47.8805 88.2213 48.0206 88.4268 48.1968 88.5989C48.3731 88.771 48.582 88.9062 48.8113 88.9966C49.0406 89.087 49.2857 89.1308 49.5322 89.1254H56.9381C57.1846 89.1308 57.4297 89.087 57.659 88.9966C57.8883 88.9062 58.0972 88.771 58.2734 88.5989C58.4497 88.4268 58.5897 88.2213 58.6853 87.9944C58.7809 87.7675 58.8302 87.5239 58.8302 87.2777C58.8302 87.0316 58.7809 86.7878 58.6853 86.561C58.5897 86.3341 58.4497 86.1286 58.2734 85.9564C58.0972 85.7843 57.8883 85.6491 57.659 85.5587C57.4297 85.4683 57.1846 85.4245 56.9381 85.43H49.5322ZM88.3835 85.43H108.754C109.798 85.43 110.598 86.2425 110.598 87.2848V89.1254H86.5402V87.2848C86.5402 86.2425 87.3395 85.43 88.3835 85.43ZM49.5322 90.9659C49.2855 90.9601 49.0401 91.0035 48.8105 91.0937C48.5809 91.184 48.3717 91.3192 48.1952 91.4913C48.0187 91.6635 47.8784 91.8691 47.7827 92.0962C47.6869 92.3232 47.6376 92.5671 47.6376 92.8135C47.6376 93.0598 47.6869 93.3037 47.7827 93.5308C47.8784 93.7578 48.0187 93.9633 48.1952 94.1355C48.3717 94.3076 48.5809 94.4428 48.8105 94.5331C49.0401 94.6233 49.2855 94.6669 49.5322 94.6611H60.6248C60.8715 94.6669 61.1168 94.6233 61.3464 94.5331C61.576 94.4428 61.7852 94.3076 61.9617 94.1355C62.1382 93.9633 62.2785 93.7578 62.3743 93.5308C62.47 93.3037 62.5194 93.0598 62.5194 92.8135C62.5194 92.5671 62.47 92.3232 62.3743 92.0962C62.2785 91.8691 62.1382 91.6635 61.9617 91.4913C61.7852 91.3192 61.576 91.184 61.3464 91.0937C61.1168 91.0035 60.8715 90.9601 60.6248 90.9659H49.5322ZM84.6968 92.8206H112.456C113.499 92.8206 114.299 93.6188 114.299 94.6611V102.055C114.299 107.179 110.182 111.305 105.05 111.305H92.0847C86.9525 111.305 82.839 107.179 82.839 102.055V94.6611C82.839 93.6188 83.6528 92.8206 84.6968 92.8206ZM42.1298 107.606H68.0307V109.45C68.0307 110.492 67.2313 111.305 66.1874 111.305H43.9732C42.9292 111.305 42.1298 110.492 42.1298 109.45V107.606Z"
                fill="#192F3D" />
        </symbol>

        <symbol id="icon-time" viewBox="0 0 145 144" fill="none"
            xmlns="http://www.w3.org/2000/svg">
            <path
                d="M77.9823 36.3389V33.2215C77.9823 32.1021 80.056 31.1901 81.1752 31.1901C82.2944 31.1901 83.2063 30.278 83.2063 29.1586V27.0315C83.2063 25.9121 82.2944 25 81.1752 25H68.8249C67.7057 25 66.7938 25.9121 66.7938 27.0315V29.1171C66.7938 30.2365 67.7057 31.1486 68.8249 31.1486C69.9441 31.1486 72.0178 32.0607 72.0178 33.1801V36.2975C50.7531 38.9508 35.4586 53.5824 35.5001 75.5762C35.5208 99.3526 51.2276 115 75 115C98.7518 115 114.5 99.249 114.5 75.514C114.5 53.5617 99.2262 38.9508 77.9823 36.3389ZM75 109.593C56.181 109.593 40.9269 94.3362 40.9269 75.514C40.9269 56.6918 56.181 41.4351 75 41.4351C93.819 41.4351 109.073 56.6918 109.073 75.514C109.073 94.3362 93.819 109.593 75 109.593Z"
                fill="#192F3D" />
            <path
                d="M75.5 53C76.0571 53 76.5 52.3782 76.5 51.596V47.404C76.5 46.6218 76.0571 46 75.5 46C74.9429 46 74.5 46.6218 74.5 47.404V51.596C74.5 52.3782 74.9429 53 75.5 53Z"
                fill="#192F3D" />
            <path
                d="M90.9712 60C91.3482 60 91.7251 59.8533 91.9974 59.5808L95.0759 56.4996C95.6414 55.9336 95.6414 54.9904 95.0759 54.4245C94.5105 53.8585 93.5681 53.8585 93.0026 54.4245L89.9241 57.5057C89.3586 58.0716 89.3586 59.0148 89.9241 59.5808C90.2173 59.8533 90.5942 60 90.9712 60Z"
                fill="#192F3D" />
            <path
                d="M101.096 74H96.904C96.1218 74 95.5 74.4429 95.5 75C95.5 75.5571 96.1218 76 96.904 76H101.096C101.878 76 102.5 75.5571 102.5 75C102.5 74.4429 101.858 74 101.096 74Z"
                fill="#192F3D" />
            <path
                d="M92.0061 90.4245C91.4387 89.8585 90.493 89.8585 89.9256 90.4245C89.3581 90.9904 89.3581 91.9336 89.9256 92.4996L93.0149 95.5808C93.3091 95.8742 93.6874 96 94.0447 96C94.4019 96 94.8012 95.8533 95.0744 95.5808C95.6419 95.0148 95.6419 94.0716 95.0744 93.5057L92.0061 90.4245Z"
                fill="#192F3D" />
            <path
                d="M75.5 96C74.9429 96 74.5 96.6218 74.5 97.404V101.596C74.5 102.378 74.9429 103 75.5 103C76.0571 103 76.5 102.378 76.5 101.596V97.404C76.5 96.6218 76.0571 96 75.5 96Z"
                fill="#192F3D" />
            <path
                d="M55.0149 90.4245L51.9256 93.5057C51.3581 94.0716 51.3581 95.0148 51.9256 95.5808C52.2198 95.8742 52.5981 96 52.9553 96C53.3126 96 53.7119 95.8533 53.9851 95.5808L57.0744 92.4996C57.6419 91.9336 57.6419 90.9904 57.0744 90.4245C56.507 89.8585 55.5823 89.8585 55.0149 90.4245Z"
                fill="#192F3D" />
            <path
                d="M50.096 74H45.904C45.1218 74 44.5 74.4429 44.5 75C44.5 75.5571 45.1218 76 45.904 76H50.096C50.8782 76 51.5 75.5571 51.5 75C51.5 74.4429 50.8582 74 50.096 74Z"
                fill="#192F3D" />
            <path
                d="M55.0236 59.5822C55.3168 59.8747 55.6937 60 56.0497 60C56.4058 60 56.8037 59.8538 57.0759 59.5614C57.6414 58.9974 57.6414 58.0574 57.0759 57.4935L53.9974 54.423C53.4319 53.859 52.4895 53.859 51.9241 54.423C51.3586 54.9869 51.3586 55.9269 51.9241 56.4909L55.0236 59.5822Z"
                fill="#192F3D" />
            <path
                d="M75.4344 64.6352C71.9833 61.1216 66.4084 61.1216 62.9777 64.6352C60.3842 67.2757 59.9796 71.1973 61.0581 74.3861C61.212 74.8411 61.2107 74.9891 61.8269 75.9112L62.8143 77.1305C63.6107 77.1305 65.5877 77.4766 66.0552 77.4766C67.2084 77.4766 64.9297 76.7673 64.1332 76.7673L62.8143 77.1305C62.8756 77.1929 62.9368 77.2552 62.9981 77.3176L75.4549 90L87.9116 77.3176C91.3628 73.804 91.3628 68.1281 87.9116 64.6352C84.4605 61.1216 78.8856 61.1216 75.4344 64.6352Z"
                fill="#8D9FB9" />
            <circle cx="72.5" cy="72" r="71" stroke="#8D9FB9" stroke-width="2" />
        </symbol>

        <symbol id="icon-label" viewBox="0 0 145 144" fill="none"
            xmlns="http://www.w3.org/2000/svg">
            <circle cx="72.5" cy="72" r="71" stroke="#8D9FB9" stroke-width="2" />
            <path
                d="M72.7091 25.1466C71.6643 25.4771 69.8551 26.4433 68.581 27.3585C67.9184 27.8162 66.7972 28.5026 66.0837 28.8586C64.8351 29.4942 64.6567 29.5196 60.656 29.4433C56.8082 29.3925 56.4259 29.4179 55.2028 29.9772C53.3681 30.7908 52.1704 32.1892 50.565 35.3418C49.826 36.8164 48.8577 38.3927 48.4245 38.8504C47.9913 39.2826 46.4878 40.2233 45.0608 40.9352C42.0539 42.3844 40.3721 43.7827 39.5312 45.4607C38.9706 46.5794 38.9451 46.8845 39.0215 50.927C39.098 55.7322 39.098 55.6559 36.7536 59.1645C33.6703 63.69 33.7467 66.207 37.0084 71.0122C39.0725 74.0632 39.098 74.1649 39.0215 78.8938C38.9451 82.6312 38.9961 83.1143 39.4802 84.1821C40.2957 85.9364 41.6972 87.1059 44.9589 88.7585C46.5898 89.5721 48.0932 90.4619 48.348 90.7416C48.7558 91.1738 48.5519 91.6823 44.4238 100.555C41.213 107.395 40.0918 110.064 40.1937 110.496C40.4995 111.691 41.1875 111.869 46.5388 112.047L51.5333 112.2L54.9225 115.988C56.9356 118.251 58.541 119.827 58.9232 119.929C60.2737 120.259 60.6305 119.725 64.4783 111.488C66.4914 107.14 68.2752 103.352 68.4026 103.022L68.6319 102.437L69.3709 102.945C72.0465 104.852 75.0025 105.284 77.4998 104.115C78.2642 103.759 79.2071 103.25 79.6148 102.945L80.3538 102.437L80.5831 103.022C80.7105 103.352 82.4943 107.14 84.5074 111.488C88.3552 119.751 88.7119 120.259 90.0625 119.929C90.4447 119.827 92.0501 118.251 94.0632 115.988L97.4524 112.2L102.6 112.047C107.722 111.869 107.747 111.869 108.333 111.208C108.639 110.852 108.894 110.395 108.894 110.191C108.894 109.962 106.932 105.589 104.536 100.479L100.179 91.1484L100.918 90.589C101.3 90.2585 102.829 89.3941 104.282 88.6568C107.238 87.1567 108.69 85.9364 109.48 84.2075C109.99 83.1143 110.041 82.6566 109.964 78.8938C109.888 74.1649 109.913 74.0632 111.977 71.0122C113.71 68.4444 114.475 66.5884 114.5 64.9104C114.5 63.207 113.99 61.9357 112.309 59.2916C109.811 55.4779 109.888 55.7576 109.964 50.927C110.041 46.0709 109.913 45.5624 108.129 43.6302C107.365 42.8166 106.295 42.1047 104.384 41.1894C100.816 39.4351 100.153 38.7741 98.3442 35.2401C97.223 33.0282 96.535 32.0112 95.6431 31.1976C93.8594 29.5959 92.9165 29.3925 88.2023 29.4688C84.3545 29.5196 84.1761 29.4942 82.902 28.8586C82.1885 28.5026 81.0673 27.8162 80.4047 27.3585C78.2897 25.8585 76.5314 25.1212 74.8751 25.0195C74.0342 24.9686 73.0658 25.0195 72.7091 25.1466ZM75.8944 28.8332C76.3785 29.0365 77.8055 29.901 79.1051 30.74C82.214 32.8248 83.3862 33.1299 87.5907 33.0536C89.4255 33.0028 91.2347 33.0028 91.6169 33.0028C92.7891 33.079 93.9358 34.3757 95.3883 37.2995C97.1975 40.9352 98.4207 42.1555 102.192 44.0624C104.919 45.4607 106.295 46.5794 106.397 47.4947C106.422 47.7235 106.448 49.8083 106.448 52.1219C106.473 56.8509 106.55 57.1559 108.716 60.3086C111.519 64.3511 111.544 65.1392 109.2 68.7241C106.499 72.792 106.473 72.8937 106.473 78.1057C106.473 83.6228 106.6 83.3939 102.269 85.6821C100.536 86.5974 98.65 87.7924 98.0639 88.3517C97.4014 89.0127 96.4076 90.5382 95.3628 92.5467C93.1204 96.8689 93.3497 96.7418 87.7946 96.7418C82.6217 96.7418 82.6217 96.7418 78.0858 99.6656C74.6712 101.852 73.7284 101.776 69.8806 98.9791C69.218 98.5215 68.0204 97.835 67.2049 97.4282C65.7524 96.7672 65.5741 96.7418 61.1911 96.7418C55.636 96.7418 55.8653 96.8689 53.6229 92.5467C52.5781 90.5382 51.5843 89.0127 50.9218 88.3517C50.3357 87.7924 48.45 86.5974 46.7172 85.6821C42.3852 83.3939 42.5126 83.6228 42.5126 78.1057C42.5126 73.7835 42.4871 73.5547 41.8501 72.1818C41.4678 71.3936 40.6014 69.8936 39.8879 68.8766C37.3907 65.2155 37.4162 64.4528 40.2702 60.3086C42.4362 57.1559 42.5126 56.8509 42.5381 52.1219C42.5381 49.8083 42.5636 47.7235 42.5891 47.4947C42.691 46.5794 44.067 45.4607 46.7936 44.0624C50.514 42.181 51.8136 40.8843 53.47 37.5283C54.897 34.6045 55.8653 33.4095 57.012 33.079C57.4707 32.9519 59.4073 32.9265 61.2676 33.0028C65.5741 33.1553 66.6953 32.8756 69.9315 30.74C73.55 28.3755 74.238 28.1467 75.8944 28.8332ZM53.0113 98.1909C54.9225 100.174 55.4066 100.301 60.656 100.301C63.2042 100.301 65.3447 100.377 65.4212 100.454C65.5741 100.606 59.3819 114.259 58.9487 114.742C58.8467 114.844 57.5471 113.573 56.0437 111.92C52.9094 108.412 53.2406 108.564 48.2206 108.564C46.4624 108.564 44.9589 108.488 44.8825 108.412C44.806 108.335 45.6979 106.2 46.8956 103.657C48.0932 101.115 49.4693 98.1655 49.9534 97.1231L50.8198 95.2163L51.4314 96.2078C51.7627 96.7418 52.4507 97.6316 53.0113 98.1909ZM101.275 101.903C102.906 105.361 104.18 108.259 104.129 108.361C104.078 108.488 102.574 108.564 100.791 108.564C95.7196 108.564 96.0763 108.412 92.942 111.92C91.4386 113.573 90.139 114.844 90.037 114.742C89.6038 114.259 83.4116 100.606 83.5645 100.454C83.641 100.377 85.5012 100.327 87.6927 100.352C92.6617 100.454 93.8594 100.149 95.6686 98.4706C96.3566 97.8096 97.1721 96.8689 97.4778 96.3095C97.7836 95.7756 98.0894 95.4197 98.1659 95.496C98.2423 95.5722 99.6438 98.4452 101.275 101.903Z"
                fill="#192F3D" />
            <path
                d="M67.582 39.3791C56.6789 41.7199 48.7494 50.5236 47.6311 61.4901C45.9029 78.5122 61.5332 92.2267 78.2309 88.3337C90.3284 85.5348 98.5375 74.0595 97.3938 61.5664C96.3772 50.4982 88.0919 41.44 77.138 39.3282C74.749 38.8702 69.8439 38.8956 67.582 39.3791ZM76.833 42.9158C85.1184 44.6715 91.5738 51.0325 93.4545 59.3273C93.9628 61.541 94.039 65.612 93.6324 67.902C92.1329 76.0187 85.957 82.5833 77.7226 84.797C74.8507 85.5603 70.1489 85.5857 67.3024 84.797C55.5098 81.6164 48.7494 70.0648 51.7992 58.335C53.7307 50.8035 60.2878 44.5951 68.0394 42.9158C70.1743 42.4578 74.6219 42.4578 76.833 42.9158Z"
                fill="#192F3D" />
            <path
                d="M77.7524 63.8406L71.5509 69.7223L67.5352 65.9308C65.3494 63.8406 63.2907 62.0177 62.9857 61.8719C61.6895 61.2399 60.0883 62.5767 60.5966 63.8406C60.7237 64.1565 63.1128 66.5627 65.8831 69.1876C69.6447 72.7605 71.0934 74 71.5509 74C72.0084 74 73.9146 72.3473 79.2265 67.2432C83.1406 63.5489 86.3684 60.2434 86.4701 59.9518C86.6734 59.1011 85.8093 58.1046 84.7927 58.0074C84.0048 57.9345 83.5727 58.299 77.7524 63.8406Z"
                fill="#192F3D" />
        </symbol>

        <symbol id="icon-logo-symbols" viewBox="0 0 360 460" fill="none"
            xmlns="http://www.w3.org/2000/svg">
            <path opacity="0.2"
                d="M284.791 229.997C284.791 357.028 301.627 460 322.396 460C343.164 460 360 357.028 360 229.997C360 102.972 343.164 0 322.396 0C301.627 0 284.791 102.972 284.791 229.997Z"
                fill="#8D9FB9" />
            <path opacity="0.2"
                d="M200.557 228.001C200.557 352.273 215.598 453.015 234.15 453.015C252.702 453.015 267.744 352.273 267.744 228.001C267.744 103.736 252.702 2.99344 234.15 2.99344C215.598 2.99344 200.557 103.736 200.557 228.001Z"
                fill="#8D9FB9" />
            <path opacity="0.2"
                d="M128.357 230.496C128.357 347.88 142.275 443.037 159.443 443.037C176.611 443.037 190.529 347.88 190.529 230.496C190.529 113.117 176.611 17.9609 159.443 17.9609C142.275 17.9609 128.357 113.117 128.357 230.496Z"
                fill="#8D9FB9" />
            <path opacity="0.2"
                d="M73.2036 228.999C73.2036 333.432 83.7542 418.091 96.7718 418.091C109.784 418.091 120.334 333.432 120.334 228.999C120.334 124.573 109.784 39.9132 96.7718 39.9132C83.7542 39.9132 73.2036 124.573 73.2036 228.999Z"
                fill="#8D9FB9" />
            <path opacity="0.2"
                d="M27.0754 228.999C27.0754 308.634 34.935 373.189 44.6241 373.189C54.3132 373.189 62.1729 308.634 62.1729 228.999C62.1729 149.37 54.3132 84.8156 44.6241 84.8156C34.935 84.8156 27.0754 149.37 27.0754 228.999Z"
                fill="#8D9FB9" />
            <path opacity="0.2"
                d="M9.53674e-06 229.997C9.53674e-06 270.505 3.81522 303.341 8.52374 303.341C13.2323 303.341 17.0474 270.505 17.0474 229.997C17.0474 189.495 13.2323 156.659 8.52374 156.659C3.81522 156.659 9.53674e-06 189.495 9.53674e-06 229.997Z"
                fill="#8D9FB9" />
        </symbol>


        <symbol id="icon-fen" viewBox="0 0 144 144" fill="none"
            xmlns="http://www.w3.org/2000/svg">
            <circle cx="72" cy="72" r="70.8387" stroke="#8D9FB9" stroke-width="2.32258" />
            <g clip-path="url(#clip0_150_664)">
                <path
                    d="M48.5901 58.6304L50.9708 61.8046C48.8798 63.3738 46.8027 63.9273 44.7811 63.9273C42.1247 63.9273 39.5635 62.9671 37.1809 62.0744C32.8918 60.4674 30.1124 59.5945 27.1643 61.8046L24.7837 58.6304C29.6204 54.9999 34.3777 56.7854 38.5736 58.3586C42.8627 59.9715 45.6441 60.8424 48.5901 58.6304ZM38.5736 49.8934C34.3777 48.3202 29.6204 46.5327 24.7837 50.1632L27.1643 53.3374C30.1104 51.1294 32.8918 52.0003 37.1809 53.6092C39.5635 54.4999 42.1247 55.4621 44.7811 55.4621C46.8047 55.4621 48.8798 54.9086 50.9708 53.3394L48.5901 50.1652C45.6441 52.3772 42.8627 51.5003 38.5736 49.8934ZM38.5736 68.0121C34.3777 66.4428 29.6184 64.6574 24.7837 68.2839L27.1643 71.4581C30.1104 69.25 32.8918 70.1209 37.1809 71.7299C39.5635 72.6246 42.1247 73.5868 44.7811 73.5868C46.8047 73.5868 48.8798 73.0293 50.9708 71.4601L48.5901 68.2859C45.6441 70.4979 42.8627 69.623 38.5736 68.0121ZM109.297 61.9355C109.297 68.5001 103.958 73.8387 97.3934 73.8387C90.8287 73.8387 85.4901 68.5001 85.4901 61.9355C85.4901 55.3709 90.8287 50.0323 97.3934 50.0323C103.958 50.0323 109.297 55.3709 109.297 61.9355ZM105.329 61.9355C105.329 57.5611 101.77 54 97.3934 54C93.0169 54 89.4579 57.5611 89.4579 61.9355C89.4579 66.3099 93.0169 69.871 97.3934 69.871C101.77 69.871 105.329 66.3099 105.329 61.9355ZM119.216 61.9355C119.216 70.9839 114.238 78.3957 106.743 81.7742C105.079 86.6883 99.3772 104.186 99.3772 113.516V115.5H72.9937L76.1045 112.159C76.158 112.102 81.7188 106.081 85.6528 96.8655C88.8766 89.3089 88.0771 84.3453 87.7279 82.9248C74.1107 80.9251 57.9818 75.9972 57.1327 75.7333L55.7321 75.3028V48.5682L57.1327 48.1377C58.198 47.8084 83.3674 40.1129 97.3934 40.1129C109.017 40.1129 119.216 50.312 119.216 61.9355ZM102.053 83.2938C100.56 83.5954 99.0043 83.7581 97.3934 83.7581C95.6912 83.7581 93.8204 83.641 91.8524 83.4407C92.2492 86.2578 92.2829 91.4416 89.3031 98.4248C86.855 104.164 83.8614 108.689 81.7347 111.532H95.4789C96.0324 102.779 99.9129 89.8724 102.053 83.2938ZM115.248 61.9355C115.248 51.7186 105.821 44.0807 97.3934 44.0807C85.7818 44.0807 65.2289 49.8855 59.6998 51.5083V72.3588C65.2309 73.9855 85.7877 79.7903 97.3934 79.7903C107.739 79.7903 115.248 72.2814 115.248 61.9355Z"
                    fill="#192F3D" />
                <path
                    d="M81.9189 111.532C91.8383 99.2903 92.903 88.2581 91.8383 83.7581H101.758C103.935 83.7581 96.5482 102.605 95.2256 111.532H81.9189Z"
                    fill="#8D9FB9" stroke="#8D9FB9" stroke-width="1.16129" />
                <path
                    d="M60.0967 71.8548V52.0163C69.6773 48.7742 89.3999 43.3355 98.1289 44.129C113.008 45.4816 121.064 64.5726 109.161 75.4839C99.6386 84.2129 72.6612 76.1532 60.0967 71.8548Z"
                    fill="#8D9FB9" stroke="#8D9FB9" stroke-width="1.16129" />
                <circle cx="96.9673" cy="60.9678" r="9.29032" stroke="#192F3D"
                    stroke-width="3.48387" />
            </g>
            <defs>
                <clipPath id="clip0_150_664">
                    <rect width="95.2258" height="95.2258" fill="white"
                        transform="translate(24.3867 30.1936)" />
                </clipPath>
            </defs>
        </symbol>


        <symbol id="icon-hands" viewBox="0 0 235 235" fill="none"
            xmlns="http://www.w3.org/2000/svg">
            <path
                d="M53.2588 59.7868C52.2604 60.7468 54.7947 63.3579 56.7146 63.3579C58.6346 63.3579 58.2506 61.6299 56.1003 60.3628C54.5259 59.4796 53.6811 59.326 53.2588 59.7868Z"
                fill="#192F3D" />
            <path
                d="M166.113 67.7353C161.083 70.8072 156.552 73.6871 156.053 74.1479C154.248 75.8375 153.518 78.0646 153.633 81.3285L153.787 84.2468L151.483 84.7844C148.296 85.5139 144.917 84.9763 139.311 82.7492C132.476 80.0997 130.709 79.7157 125.756 79.9845C120.918 80.2533 112.009 81.7125 106.941 83.0948C105.021 83.6324 101.795 84.746 99.7217 85.6291C97.6866 86.5123 95.8818 87.1267 95.6898 87.0115C95.4979 86.8963 93.6547 86.5123 91.6196 86.2051C89.5845 85.8595 85.9366 84.8612 83.4407 83.978L78.948 82.3268L79.0632 79.9461C79.2168 75.9527 77.6041 73.3799 73.3418 70.884C72.1898 70.1929 69.2331 68.3881 66.7372 66.8906C64.2797 65.3546 62.0142 64.1259 61.707 64.1259C60.939 64.1259 60.2094 65.0474 60.4782 65.7386C60.5934 66.0074 63.8189 68.1577 67.6204 70.4616C74.7626 74.7623 75.7609 75.6071 76.3369 77.719C77.1049 80.4069 77.4889 79.6773 62.8974 103.677C59.6335 109.052 56.1392 114.851 55.1024 116.54C52.1841 121.455 50.917 122.492 47.9219 122.492C46.5395 122.492 45.4259 121.993 41.1253 119.42C38.2838 117.692 35.7111 116.348 35.3655 116.425C35.0199 116.502 34.7127 117.001 34.6359 117.538C34.5207 118.46 34.9815 118.806 39.4741 121.494C46.1171 125.449 48.0371 125.909 51.3009 124.45L52.9137 123.721L56.6 128.098C58.6351 130.479 60.2862 132.552 60.2862 132.668C60.2862 132.783 59.6335 133.781 58.7887 134.895C56.1008 138.504 55.7168 141.653 57.4831 145.185C58.9039 147.95 61.131 149.448 64.2029 149.678L66.43 149.832V152.328C66.43 156.168 68.1964 158.971 71.6139 160.545C73.265 161.313 76.5289 161.505 78.1032 160.929C78.9864 160.583 79.0632 160.622 79.2936 162.081C79.4472 162.926 80.1 164.423 80.7528 165.383C82.7879 168.378 86.2438 169.645 90.2756 168.839C91.658 168.57 91.6964 168.57 91.9268 169.914C92.2724 171.757 94.6147 174.061 96.957 174.868C101.68 176.442 106.48 174.906 109.398 170.874L110.473 169.377L111.971 170.298C114.697 171.988 119.305 173.562 122.223 173.793C127.292 174.253 131.017 172.487 133.82 168.378L135.279 166.266H137.852C141.576 166.266 143.611 165.422 145.877 163.002C146.952 161.812 148.027 160.084 148.45 158.971C148.987 157.435 149.294 157.051 150.024 157.051C151.445 157.051 154.44 155.86 156.206 154.632C158.126 153.249 159.892 150.638 160.545 148.142C161.006 146.491 161.121 146.376 162.542 146.145C168.263 145.224 172.334 138.85 170.26 133.973L169.531 132.284L173.985 127.983L178.401 123.644L179.668 124.604C181.281 125.756 184.045 126.37 186.08 125.986C187.77 125.679 192.378 123.26 193.568 122.069C194.144 121.494 194.221 121.148 193.914 120.572C193.683 120.15 193.299 119.804 193.069 119.804C192.839 119.804 191.303 120.572 189.651 121.57C185.965 123.721 184.621 123.989 182.279 122.953C180.167 122.031 181.05 123.298 167.035 100.221C161.428 91.0433 156.667 82.7876 156.36 81.9429C155.669 79.8309 156.245 77.7574 157.896 76.1447C158.587 75.4919 162.465 72.996 166.459 70.5768C177.402 63.9723 177.095 64.2027 176.941 63.2427C176.865 62.7435 176.519 62.3595 176.058 62.2827C175.636 62.2443 171.335 64.5866 166.113 67.7353ZM131.669 82.9796C133.436 83.4404 136.316 84.362 138.044 85.0531C139.772 85.7443 142.114 86.5891 143.227 86.9347C145.877 87.7027 150.946 87.7411 153.557 86.9347C154.67 86.6275 155.63 86.3971 155.669 86.4739C155.707 86.5507 158.856 91.6961 162.619 97.9167C166.343 104.137 171.066 111.894 173.025 115.119C175.022 118.345 176.634 121.186 176.634 121.378C176.634 121.916 172.833 125.871 169.991 128.328L167.764 130.287L166.343 129.135C159.585 123.759 152.328 118.729 135.74 107.9C121.379 98.5311 122.876 99.3375 120.495 99.7982C119.036 100.105 117.193 100.105 114.236 99.875C109.398 99.4143 109.705 99.2607 107.133 103.446C105.635 105.942 102.141 109.513 99.9521 110.857C96.4578 113.007 90.89 113.891 88.1253 112.739C86.4742 112.047 86.4358 111.279 87.7413 108.63C89.4693 105.251 92.1188 98.4159 92.7331 95.9584C93.3859 93.0401 94.1155 92.0033 96.765 90.1602C101.488 86.8195 114.198 83.4404 125.756 82.442C126.601 82.3652 127.561 82.2884 127.906 82.25C128.214 82.2116 129.941 82.5188 131.669 82.9796ZM88.5093 88.2786C89.5845 88.509 91.082 88.7778 91.8884 88.893L93.3475 89.1234L92.234 90.5442C91.6196 91.3121 90.9284 92.5793 90.698 93.3089C90.4676 94.0384 89.93 95.92 89.4693 97.4943C89.0085 99.0303 87.5877 102.601 86.359 105.443C85.1302 108.246 84.0934 110.895 84.0934 111.356C84.0934 116.194 93.0403 117.462 100.259 113.622C103.37 111.932 106.749 108.784 109.053 105.328L111.011 102.409L116.809 102.448L122.607 102.525L125.142 104.137C134.127 109.859 156.398 124.834 159.931 127.484C166.843 132.668 168.187 134.203 168.187 136.968C168.187 139.387 165.844 142.421 163.31 143.266C161.697 143.765 159.086 143.496 157.32 142.613C155.976 141.922 151.061 138.85 141.73 132.821C138.466 130.748 135.394 129.02 134.933 129.02C133.781 129.02 133.436 130.133 134.281 130.978C135.509 132.13 154.67 144.264 156.475 145.032C158.51 145.838 158.625 146.529 157.397 149.179C156.245 151.636 154.056 153.403 151.099 154.171L148.68 154.824L142.767 151.252C139.541 149.294 134.857 146.414 132.361 144.878C129.865 143.342 127.599 142.075 127.292 142.075C126.601 142.075 125.833 143.112 126.063 143.726C126.178 143.995 127.945 145.262 130.018 146.529C143.88 154.977 146.107 156.36 146.261 156.513C146.568 156.82 145.455 159.508 144.495 160.814C143.112 162.695 140.924 163.617 138.005 163.617C135.624 163.617 135.317 163.502 127.446 159.355C122.876 156.974 118.921 155.131 118.499 155.208C117.923 155.284 117.692 155.592 117.692 156.244C117.692 157.051 118.575 157.665 124.796 160.929C128.713 163.002 132.053 164.769 132.245 164.846C132.937 165.076 131.631 167.418 129.941 168.916C128.06 170.567 126.102 171.258 123.299 171.258C121.033 171.258 116.233 169.799 113.776 168.34L112.163 167.418L112.969 165.614C114.044 163.156 114.083 159.393 113.008 157.051C111.51 153.633 108.592 151.329 105.904 151.291C104.867 151.291 104.829 151.214 104.829 149.179C104.829 144.226 101.334 140.501 96.573 140.386L94.6147 140.347L94.7683 138.312C95.1907 133.282 91.1204 128.904 86.0134 128.904C83.7478 128.904 81.2903 129.903 79.908 131.362L79.1784 132.168L78.4872 130.748C76.1065 125.756 68.158 124.911 63.0893 129.173L61.9374 130.133L60.5934 128.712C59.0191 127.023 55.5248 122.876 55.1792 122.223C55.0256 121.993 56.3312 119.497 58.0207 116.655C59.7487 113.852 62.3214 109.628 63.7421 107.324C65.1629 104.982 68.8492 98.9535 71.9594 93.8465L77.5657 84.5924L82.0967 86.2435C84.5542 87.1651 87.4725 88.0866 88.5093 88.2786ZM73.2266 129.442C75.8761 130.44 77.4121 133.32 76.4521 135.471C75.4921 137.544 68.9259 145.992 67.774 146.606C67.1596 146.913 65.8157 147.221 64.7789 147.221C62.7438 147.221 61.3998 146.414 59.9791 144.341C59.2111 143.227 59.0959 142.651 59.2111 140.693C59.3647 138.504 59.4799 138.197 62.2062 134.549C64.3565 131.708 65.5085 130.517 66.814 129.864C68.6572 128.943 71.4219 128.751 73.2266 129.442ZM88.7013 132.168C91.0436 133.359 92.1572 135.125 92.1572 137.659C92.1572 139.157 91.9268 140.002 91.1972 141.077C88.3941 145.224 79.6008 156.82 78.7944 157.435C74.3402 160.967 67.5052 156.398 69.0795 150.984C69.3099 150.293 72.2666 145.915 75.6841 141.23C80.9447 134.088 82.1351 132.668 83.4791 132.053C85.5526 131.132 86.6278 131.132 88.7013 132.168ZM98.9153 143.573C101.027 144.533 102.294 146.606 102.294 149.064C102.294 151.099 102.218 151.214 95.4211 160.43C92.6947 164.154 91.6196 165.306 90.314 165.921C86.3206 167.879 81.7895 164.884 81.7895 160.315C81.7895 159.547 81.9815 158.548 82.2119 158.087C82.8647 156.897 90.5444 146.337 91.7348 144.994C93.6931 142.843 96.189 142.344 98.9153 143.573ZM108.861 155.63C111.472 158.203 112.009 161.236 110.435 164.538C109.398 166.689 106.326 170.605 104.752 171.757C103.446 172.717 99.7601 173.063 97.8402 172.449C95.7282 171.757 94.2691 169.953 94.2691 168.071C94.2691 166.612 94.6915 165.882 98.4162 160.775C100.72 157.665 102.947 154.862 103.408 154.555C103.869 154.248 104.906 153.979 105.75 153.979C106.979 153.979 107.517 154.248 108.861 155.63Z"
                fill="#192F3D" />
            <path
                d="M197.485 116.77C196.141 117.615 195.872 118.652 196.793 119.42C197.216 119.766 197.638 119.689 198.867 118.998C200.595 118.038 201.056 117.27 200.403 116.502C199.789 115.772 198.905 115.849 197.485 116.77Z"
                fill="#192F3D" />
            <path
                d="M211.577 229.471C211.577 229.778 211.769 229.931 211.961 229.816C212.191 229.663 212.268 229.394 212.153 229.202C211.807 228.664 211.577 228.779 211.577 229.471Z"
                fill="#192F3D" />
        </symbol>


        <symbol id="icon-facebook" viewBox="0 0 32 32" fill="none"
            xmlns="http://www.w3.org/2000/svg">
            <g clip-path="url(#clip0_147_879)">
                <path
                    d="M32 16.098C32 7.2071 24.8369 0 16.002 0C7.1631 0.00199975 0 7.2071 0 16.1C0 24.133 5.85127 30.7922 13.4983 32V20.7514H9.43882V16.1H13.5023V12.5504C13.5023 8.51694 15.892 6.28921 19.5456 6.28921C21.2973 6.28921 23.1271 6.60318 23.1271 6.60318V10.5627H21.1094C19.1236 10.5627 18.5037 11.8045 18.5037 13.0784V16.098H22.9391L22.2312 20.7494H18.5017V31.998C26.1487 30.7902 32 24.131 32 16.098Z"
                    fill="#8D9FB9" />
            </g>
            <defs>
                <clipPath id="clip0_147_879">
                    <rect width="32" height="32" fill="white" />
                </clipPath>
            </defs>
        </symbol>


        <symbol id="icon-instagram" viewBox="0 0 32 32" fill="none"
            xmlns="http://www.w3.org/2000/svg">
            <circle cx="16" cy="16" r="16" fill="#8D9FB9" />
            <path
                d="M16 20C17.0609 20 18.0783 19.5786 18.8284 18.8284C19.5786 18.0783 20 17.0609 20 16C20 14.9391 19.5786 13.9217 18.8284 13.1716C18.0783 12.4214 17.0609 12 16 12C14.9391 12 13.9217 12.4214 13.1716 13.1716C12.4214 13.9217 12 14.9391 12 16C12 17.0609 12.4214 18.0783 13.1716 18.8284C13.9217 19.5786 14.9391 20 16 20Z"
                stroke="#FFF8EB" stroke-linecap="round" stroke-linejoin="round" />
            <path
                d="M7 20V12C7 10.6739 7.52678 9.40215 8.46447 8.46447C9.40215 7.52678 10.6739 7 12 7H20C21.3261 7 22.5979 7.52678 23.5355 8.46447C24.4732 9.40215 25 10.6739 25 12V20C25 21.3261 24.4732 22.5979 23.5355 23.5355C22.5979 24.4732 21.3261 25 20 25H12C10.6739 25 9.40215 24.4732 8.46447 23.5355C7.52678 22.5979 7 21.3261 7 20Z"
                stroke="#FFF8EB" />
            <path d="M21.23 10.5657L21.2402 10.5544" stroke="#FFF8EB" stroke-width="1.28571"
                stroke-linecap="round" stroke-linejoin="round" />
        </symbol>


        <symbol id="icon-telegram" viewBox="0 0 32 32" fill="none"
            xmlns="http://www.w3.org/2000/svg">
            <g clip-path="url(#clip0_147_892)">
                <path
                    d="M16 0C7.168 0 0 7.168 0 16C0 24.832 7.168 32 16 32C24.832 32 32 24.832 32 16C32 7.168 24.832 0 16 0ZM23.424 10.88C23.184 13.408 22.144 19.552 21.616 22.384C21.392 23.584 20.944 23.984 20.528 24.032C19.6 24.112 18.896 23.424 18 22.832C16.592 21.904 15.792 21.328 14.432 20.432C12.848 19.392 13.872 18.816 14.784 17.888C15.024 17.648 19.12 13.92 19.2 13.584C19.2111 13.5331 19.2096 13.4803 19.1957 13.4301C19.1818 13.3799 19.1558 13.3339 19.12 13.296C19.024 13.216 18.896 13.248 18.784 13.264C18.64 13.296 16.4 14.784 12.032 17.728C11.392 18.16 10.816 18.384 10.304 18.368C9.728 18.352 8.64 18.048 7.824 17.776C6.816 17.456 6.032 17.28 6.096 16.72C6.128 16.432 6.528 16.144 7.28 15.84C11.952 13.808 15.056 12.464 16.608 11.824C21.056 9.968 21.968 9.648 22.576 9.648C22.704 9.648 23.008 9.68 23.2 9.84C23.36 9.968 23.408 10.144 23.424 10.272C23.408 10.368 23.44 10.656 23.424 10.88Z"
                    fill="#8D9FB9" />
            </g>
            <defs>
                <clipPath id="clip0_147_892">
                    <rect width="32" height="32" fill="white" />
                </clipPath>
            </defs>
        </symbol>


    </defs>
</svg>